<?xml version="1.0" encoding="utf-8" standalone="no"?>
<!DOCTYPE svg PUBLIC "-//W3C//DTD SVG 1.1//EN"
  "http://www.w3.org/Graphics/SVG/1.1/DTD/svg11.dtd">
<svg xmlns:xlink="http://www.w3.org/1999/xlink" width="394.423125pt" height="297.190125pt" viewBox="0 0 394.423125 297.190125" xmlns="http://www.w3.org/2000/svg" version="1.1">
 <metadata>
  <rdf:RDF xmlns:dc="http://purl.org/dc/elements/1.1/" xmlns:cc="http://creativecommons.org/ns#" xmlns:rdf="http://www.w3.org/1999/02/22-rdf-syntax-ns#">
   <cc:Work>
    <dc:type rdf:resource="http://purl.org/dc/dcmitype/StillImage"/>
    <dc:date>2023-12-09T02:30:49.663088</dc:date>
    <dc:format>image/svg+xml</dc:format>
    <dc:creator>
     <cc:Agent>
      <dc:title>Matplotlib v3.8.2, https://matplotlib.org/</dc:title>
     </cc:Agent>
    </dc:creator>
   </cc:Work>
  </rdf:RDF>
 </metadata>
 <defs>
  <style type="text/css">*{stroke-linejoin: round; stroke-linecap: butt}</style>
 </defs>
 <g id="figure_1">
  <g id="patch_1">
   <path d="M 0 297.190125 
L 394.423125 297.190125 
L 394.423125 0 
L 0 0 
z
" style="fill: #ffffff"/>
  </g>
  <g id="axes_1">
   <g id="patch_2">
    <path d="M 30.103125 273.312 
L 387.223125 273.312 
L 387.223125 7.2 
L 30.103125 7.2 
z
" style="fill: #ffffff"/>
   </g>
   <g id="PathCollection_1">
    <defs>
     <path id="m85b0453e4e" d="M 0 1.581139 
C 0.419323 1.581139 0.821528 1.41454 1.118034 1.118034 
C 1.41454 0.821528 1.581139 0.419323 1.581139 0 
C 1.581139 -0.419323 1.41454 -0.821528 1.118034 -1.118034 
C 0.821528 -1.41454 0.419323 -1.581139 0 -1.581139 
C -0.419323 -1.581139 -0.821528 -1.41454 -1.118034 -1.118034 
C -1.41454 -0.821528 -1.581139 -0.419323 -1.581139 0 
C -1.581139 0.419323 -1.41454 0.821528 -1.118034 1.118034 
C -0.821528 1.41454 -0.419323 1.581139 0 1.581139 
z
" style="stroke: #0000ff"/>
    </defs>
    <g clip-path="url(#p0fb521e8cb)">
     <use xlink:href="#m85b0453e4e" x="46.335852" y="69.082774" style="fill: #0000ff; stroke: #0000ff"/>
     <use xlink:href="#m85b0453e4e" x="49.615191" y="182.054421" style="fill: #0000ff; stroke: #0000ff"/>
     <use xlink:href="#m85b0453e4e" x="52.89453" y="158.160108" style="fill: #0000ff; stroke: #0000ff"/>
     <use xlink:href="#m85b0453e4e" x="56.173869" y="92.375885" style="fill: #0000ff; stroke: #0000ff"/>
     <use xlink:href="#m85b0453e4e" x="59.453208" y="100.135454" style="fill: #0000ff; stroke: #0000ff"/>
     <use xlink:href="#m85b0453e4e" x="62.732546" y="118.08497" style="fill: #0000ff; stroke: #0000ff"/>
     <use xlink:href="#m85b0453e4e" x="66.011885" y="179.262199" style="fill: #0000ff; stroke: #0000ff"/>
     <use xlink:href="#m85b0453e4e" x="69.291224" y="27.620775" style="fill: #0000ff; stroke: #0000ff"/>
     <use xlink:href="#m85b0453e4e" x="72.570563" y="191.144951" style="fill: #0000ff; stroke: #0000ff"/>
     <use xlink:href="#m85b0453e4e" x="75.849902" y="122.194539" style="fill: #0000ff; stroke: #0000ff"/>
     <use xlink:href="#m85b0453e4e" x="79.129241" y="73.112971" style="fill: #0000ff; stroke: #0000ff"/>
     <use xlink:href="#m85b0453e4e" x="82.40858" y="73.14171" style="fill: #0000ff; stroke: #0000ff"/>
     <use xlink:href="#m85b0453e4e" x="85.687918" y="110.389175" style="fill: #0000ff; stroke: #0000ff"/>
     <use xlink:href="#m85b0453e4e" x="88.967257" y="123.667181" style="fill: #0000ff; stroke: #0000ff"/>
     <use xlink:href="#m85b0453e4e" x="92.246596" y="89.364241" style="fill: #0000ff; stroke: #0000ff"/>
     <use xlink:href="#m85b0453e4e" x="95.525935" y="103.478689" style="fill: #0000ff; stroke: #0000ff"/>
     <use xlink:href="#m85b0453e4e" x="98.805274" y="173.102814" style="fill: #0000ff; stroke: #0000ff"/>
     <use xlink:href="#m85b0453e4e" x="102.084613" y="86.774636" style="fill: #0000ff; stroke: #0000ff"/>
     <use xlink:href="#m85b0453e4e" x="105.363951" y="160.650309" style="fill: #0000ff; stroke: #0000ff"/>
     <use xlink:href="#m85b0453e4e" x="108.64329" y="125.642859" style="fill: #0000ff; stroke: #0000ff"/>
     <use xlink:href="#m85b0453e4e" x="111.922629" y="141.142798" style="fill: #0000ff; stroke: #0000ff"/>
     <use xlink:href="#m85b0453e4e" x="115.201968" y="149.633538" style="fill: #0000ff; stroke: #0000ff"/>
     <use xlink:href="#m85b0453e4e" x="118.481307" y="47.716821" style="fill: #0000ff; stroke: #0000ff"/>
     <use xlink:href="#m85b0453e4e" x="121.760646" y="163.894822" style="fill: #0000ff; stroke: #0000ff"/>
     <use xlink:href="#m85b0453e4e" x="125.039985" y="136.390577" style="fill: #0000ff; stroke: #0000ff"/>
     <use xlink:href="#m85b0453e4e" x="128.319323" y="161.979045" style="fill: #0000ff; stroke: #0000ff"/>
     <use xlink:href="#m85b0453e4e" x="131.598662" y="93.168672" style="fill: #0000ff; stroke: #0000ff"/>
     <use xlink:href="#m85b0453e4e" x="134.878001" y="128.14755" style="fill: #0000ff; stroke: #0000ff"/>
     <use xlink:href="#m85b0453e4e" x="138.15734" y="106.567275" style="fill: #0000ff; stroke: #0000ff"/>
     <use xlink:href="#m85b0453e4e" x="141.436679" y="108.49727" style="fill: #0000ff; stroke: #0000ff"/>
     <use xlink:href="#m85b0453e4e" x="144.716018" y="148.95768" style="fill: #0000ff; stroke: #0000ff"/>
     <use xlink:href="#m85b0453e4e" x="147.995356" y="128.267272" style="fill: #0000ff; stroke: #0000ff"/>
     <use xlink:href="#m85b0453e4e" x="151.274695" y="100.594876" style="fill: #0000ff; stroke: #0000ff"/>
     <use xlink:href="#m85b0453e4e" x="154.554034" y="117.153169" style="fill: #0000ff; stroke: #0000ff"/>
     <use xlink:href="#m85b0453e4e" x="157.833373" y="205.692076" style="fill: #0000ff; stroke: #0000ff"/>
     <use xlink:href="#m85b0453e4e" x="161.112712" y="88.938354" style="fill: #0000ff; stroke: #0000ff"/>
     <use xlink:href="#m85b0453e4e" x="164.392051" y="107.822777" style="fill: #0000ff; stroke: #0000ff"/>
     <use xlink:href="#m85b0453e4e" x="167.671389" y="116.995513" style="fill: #0000ff; stroke: #0000ff"/>
     <use xlink:href="#m85b0453e4e" x="170.950728" y="139.90339" style="fill: #0000ff; stroke: #0000ff"/>
     <use xlink:href="#m85b0453e4e" x="174.230067" y="109.440772" style="fill: #0000ff; stroke: #0000ff"/>
     <use xlink:href="#m85b0453e4e" x="177.509406" y="114.295677" style="fill: #0000ff; stroke: #0000ff"/>
     <use xlink:href="#m85b0453e4e" x="180.788745" y="93.729837" style="fill: #0000ff; stroke: #0000ff"/>
     <use xlink:href="#m85b0453e4e" x="184.068084" y="201.042676" style="fill: #0000ff; stroke: #0000ff"/>
     <use xlink:href="#m85b0453e4e" x="187.347423" y="116.61698" style="fill: #0000ff; stroke: #0000ff"/>
     <use xlink:href="#m85b0453e4e" x="190.626761" y="114.139783" style="fill: #0000ff; stroke: #0000ff"/>
     <use xlink:href="#m85b0453e4e" x="193.9061" y="86.66335" style="fill: #0000ff; stroke: #0000ff"/>
     <use xlink:href="#m85b0453e4e" x="197.185439" y="160.878872" style="fill: #0000ff; stroke: #0000ff"/>
     <use xlink:href="#m85b0453e4e" x="200.464778" y="152.229428" style="fill: #0000ff; stroke: #0000ff"/>
     <use xlink:href="#m85b0453e4e" x="203.744117" y="191.898045" style="fill: #0000ff; stroke: #0000ff"/>
     <use xlink:href="#m85b0453e4e" x="207.023456" y="106.002519" style="fill: #0000ff; stroke: #0000ff"/>
     <use xlink:href="#m85b0453e4e" x="210.302794" y="138.028252" style="fill: #0000ff; stroke: #0000ff"/>
     <use xlink:href="#m85b0453e4e" x="213.582133" y="92.419337" style="fill: #0000ff; stroke: #0000ff"/>
     <use xlink:href="#m85b0453e4e" x="216.861472" y="76.695259" style="fill: #0000ff; stroke: #0000ff"/>
     <use xlink:href="#m85b0453e4e" x="220.140811" y="115.91195" style="fill: #0000ff; stroke: #0000ff"/>
     <use xlink:href="#m85b0453e4e" x="223.42015" y="161.64546" style="fill: #0000ff; stroke: #0000ff"/>
     <use xlink:href="#m85b0453e4e" x="226.699489" y="74.091262" style="fill: #0000ff; stroke: #0000ff"/>
     <use xlink:href="#m85b0453e4e" x="229.978827" y="81.979862" style="fill: #0000ff; stroke: #0000ff"/>
     <use xlink:href="#m85b0453e4e" x="233.258166" y="88.279316" style="fill: #0000ff; stroke: #0000ff"/>
     <use xlink:href="#m85b0453e4e" x="236.537505" y="79.03457" style="fill: #0000ff; stroke: #0000ff"/>
     <use xlink:href="#m85b0453e4e" x="239.816844" y="261.216" style="fill: #0000ff; stroke: #0000ff"/>
     <use xlink:href="#m85b0453e4e" x="243.096183" y="49.554199" style="fill: #0000ff; stroke: #0000ff"/>
     <use xlink:href="#m85b0453e4e" x="246.375522" y="152.148492" style="fill: #0000ff; stroke: #0000ff"/>
     <use xlink:href="#m85b0453e4e" x="249.654861" y="100.426063" style="fill: #0000ff; stroke: #0000ff"/>
     <use xlink:href="#m85b0453e4e" x="252.934199" y="146.055411" style="fill: #0000ff; stroke: #0000ff"/>
     <use xlink:href="#m85b0453e4e" x="256.213538" y="194.327841" style="fill: #0000ff; stroke: #0000ff"/>
     <use xlink:href="#m85b0453e4e" x="259.492877" y="148.50177" style="fill: #0000ff; stroke: #0000ff"/>
     <use xlink:href="#m85b0453e4e" x="262.772216" y="74.061387" style="fill: #0000ff; stroke: #0000ff"/>
     <use xlink:href="#m85b0453e4e" x="266.051555" y="154.633734" style="fill: #0000ff; stroke: #0000ff"/>
     <use xlink:href="#m85b0453e4e" x="269.330894" y="124.319663" style="fill: #0000ff; stroke: #0000ff"/>
     <use xlink:href="#m85b0453e4e" x="272.610232" y="183.084668" style="fill: #0000ff; stroke: #0000ff"/>
     <use xlink:href="#m85b0453e4e" x="275.889571" y="133.453019" style="fill: #0000ff; stroke: #0000ff"/>
     <use xlink:href="#m85b0453e4e" x="279.16891" y="59.66883" style="fill: #0000ff; stroke: #0000ff"/>
     <use xlink:href="#m85b0453e4e" x="282.448249" y="93.482595" style="fill: #0000ff; stroke: #0000ff"/>
     <use xlink:href="#m85b0453e4e" x="285.727588" y="99.215018" style="fill: #0000ff; stroke: #0000ff"/>
     <use xlink:href="#m85b0453e4e" x="289.006927" y="82.854198" style="fill: #0000ff; stroke: #0000ff"/>
     <use xlink:href="#m85b0453e4e" x="292.286265" y="150.505296" style="fill: #0000ff; stroke: #0000ff"/>
     <use xlink:href="#m85b0453e4e" x="295.565604" y="95.173844" style="fill: #0000ff; stroke: #0000ff"/>
     <use xlink:href="#m85b0453e4e" x="298.844943" y="103.150985" style="fill: #0000ff; stroke: #0000ff"/>
     <use xlink:href="#m85b0453e4e" x="302.124282" y="121.901315" style="fill: #0000ff; stroke: #0000ff"/>
     <use xlink:href="#m85b0453e4e" x="305.403621" y="19.296" style="fill: #0000ff; stroke: #0000ff"/>
     <use xlink:href="#m85b0453e4e" x="308.68296" y="114.119694" style="fill: #0000ff; stroke: #0000ff"/>
     <use xlink:href="#m85b0453e4e" x="311.962299" y="128.775568" style="fill: #0000ff; stroke: #0000ff"/>
     <use xlink:href="#m85b0453e4e" x="315.241637" y="149.336753" style="fill: #0000ff; stroke: #0000ff"/>
     <use xlink:href="#m85b0453e4e" x="318.520976" y="183.254703" style="fill: #0000ff; stroke: #0000ff"/>
     <use xlink:href="#m85b0453e4e" x="321.800315" y="197.130231" style="fill: #0000ff; stroke: #0000ff"/>
     <use xlink:href="#m85b0453e4e" x="325.079654" y="210.291299" style="fill: #0000ff; stroke: #0000ff"/>
     <use xlink:href="#m85b0453e4e" x="328.358993" y="60.779147" style="fill: #0000ff; stroke: #0000ff"/>
     <use xlink:href="#m85b0453e4e" x="331.638332" y="150.504692" style="fill: #0000ff; stroke: #0000ff"/>
     <use xlink:href="#m85b0453e4e" x="334.91767" y="212.445618" style="fill: #0000ff; stroke: #0000ff"/>
     <use xlink:href="#m85b0453e4e" x="338.197009" y="116.979147" style="fill: #0000ff; stroke: #0000ff"/>
     <use xlink:href="#m85b0453e4e" x="341.476348" y="227.678103" style="fill: #0000ff; stroke: #0000ff"/>
     <use xlink:href="#m85b0453e4e" x="344.755687" y="95.523198" style="fill: #0000ff; stroke: #0000ff"/>
     <use xlink:href="#m85b0453e4e" x="348.035026" y="201.809798" style="fill: #0000ff; stroke: #0000ff"/>
     <use xlink:href="#m85b0453e4e" x="351.314365" y="135.672265" style="fill: #0000ff; stroke: #0000ff"/>
     <use xlink:href="#m85b0453e4e" x="354.593704" y="122.796554" style="fill: #0000ff; stroke: #0000ff"/>
     <use xlink:href="#m85b0453e4e" x="357.873042" y="179.347809" style="fill: #0000ff; stroke: #0000ff"/>
     <use xlink:href="#m85b0453e4e" x="361.152381" y="134.14673" style="fill: #0000ff; stroke: #0000ff"/>
     <use xlink:href="#m85b0453e4e" x="364.43172" y="144.152555" style="fill: #0000ff; stroke: #0000ff"/>
     <use xlink:href="#m85b0453e4e" x="367.711059" y="89.490502" style="fill: #0000ff; stroke: #0000ff"/>
     <use xlink:href="#m85b0453e4e" x="370.990398" y="79.990733" style="fill: #0000ff; stroke: #0000ff"/>
    </g>
   </g>
   <g id="matplotlib.axis_1">
    <g id="xtick_1">
     <g id="line2d_1">
      <path d="M 46.335852 273.312 
L 46.335852 7.2 
" clip-path="url(#p0fb521e8cb)" style="fill: none; stroke-dasharray: 0.8,1.32; stroke-dashoffset: 0; stroke: #b0b0b0; stroke-width: 0.8"/>
     </g>
     <g id="line2d_2">
      <defs>
       <path id="mcb8abdee37" d="M 0 0 
L 0 3.5 
" style="stroke: #000000; stroke-width: 0.8"/>
      </defs>
      <g>
       <use xlink:href="#mcb8abdee37" x="46.335852" y="273.312" style="stroke: #000000; stroke-width: 0.8"/>
      </g>
     </g>
     <g id="text_1">
      <!-- 0.0 -->
      <g transform="translate(38.38429 287.910437) scale(0.1 -0.1)">
       <defs>
        <path id="DejaVuSans-30" d="M 2034 4250 
Q 1547 4250 1301 3770 
Q 1056 3291 1056 2328 
Q 1056 1369 1301 889 
Q 1547 409 2034 409 
Q 2525 409 2770 889 
Q 3016 1369 3016 2328 
Q 3016 3291 2770 3770 
Q 2525 4250 2034 4250 
z
M 2034 4750 
Q 2819 4750 3233 4129 
Q 3647 3509 3647 2328 
Q 3647 1150 3233 529 
Q 2819 -91 2034 -91 
Q 1250 -91 836 529 
Q 422 1150 422 2328 
Q 422 3509 836 4129 
Q 1250 4750 2034 4750 
z
" transform="scale(0.015625)"/>
        <path id="DejaVuSans-2e" d="M 684 794 
L 1344 794 
L 1344 0 
L 684 0 
L 684 794 
z
" transform="scale(0.015625)"/>
       </defs>
       <use xlink:href="#DejaVuSans-30"/>
       <use xlink:href="#DejaVuSans-2e" x="63.623047"/>
       <use xlink:href="#DejaVuSans-30" x="95.410156"/>
      </g>
     </g>
    </g>
    <g id="xtick_2">
     <g id="line2d_3">
      <path d="M 111.922629 273.312 
L 111.922629 7.2 
" clip-path="url(#p0fb521e8cb)" style="fill: none; stroke-dasharray: 0.8,1.32; stroke-dashoffset: 0; stroke: #b0b0b0; stroke-width: 0.8"/>
     </g>
     <g id="line2d_4">
      <g>
       <use xlink:href="#mcb8abdee37" x="111.922629" y="273.312" style="stroke: #000000; stroke-width: 0.8"/>
      </g>
     </g>
     <g id="text_2">
      <!-- 0.2 -->
      <g transform="translate(103.971067 287.910437) scale(0.1 -0.1)">
       <defs>
        <path id="DejaVuSans-32" d="M 1228 531 
L 3431 531 
L 3431 0 
L 469 0 
L 469 531 
Q 828 903 1448 1529 
Q 2069 2156 2228 2338 
Q 2531 2678 2651 2914 
Q 2772 3150 2772 3378 
Q 2772 3750 2511 3984 
Q 2250 4219 1831 4219 
Q 1534 4219 1204 4116 
Q 875 4013 500 3803 
L 500 4441 
Q 881 4594 1212 4672 
Q 1544 4750 1819 4750 
Q 2544 4750 2975 4387 
Q 3406 4025 3406 3419 
Q 3406 3131 3298 2873 
Q 3191 2616 2906 2266 
Q 2828 2175 2409 1742 
Q 1991 1309 1228 531 
z
" transform="scale(0.015625)"/>
       </defs>
       <use xlink:href="#DejaVuSans-30"/>
       <use xlink:href="#DejaVuSans-2e" x="63.623047"/>
       <use xlink:href="#DejaVuSans-32" x="95.410156"/>
      </g>
     </g>
    </g>
    <g id="xtick_3">
     <g id="line2d_5">
      <path d="M 177.509406 273.312 
L 177.509406 7.2 
" clip-path="url(#p0fb521e8cb)" style="fill: none; stroke-dasharray: 0.8,1.32; stroke-dashoffset: 0; stroke: #b0b0b0; stroke-width: 0.8"/>
     </g>
     <g id="line2d_6">
      <g>
       <use xlink:href="#mcb8abdee37" x="177.509406" y="273.312" style="stroke: #000000; stroke-width: 0.8"/>
      </g>
     </g>
     <g id="text_3">
      <!-- 0.4 -->
      <g transform="translate(169.557843 287.910437) scale(0.1 -0.1)">
       <defs>
        <path id="DejaVuSans-34" d="M 2419 4116 
L 825 1625 
L 2419 1625 
L 2419 4116 
z
M 2253 4666 
L 3047 4666 
L 3047 1625 
L 3713 1625 
L 3713 1100 
L 3047 1100 
L 3047 0 
L 2419 0 
L 2419 1100 
L 313 1100 
L 313 1709 
L 2253 4666 
z
" transform="scale(0.015625)"/>
       </defs>
       <use xlink:href="#DejaVuSans-30"/>
       <use xlink:href="#DejaVuSans-2e" x="63.623047"/>
       <use xlink:href="#DejaVuSans-34" x="95.410156"/>
      </g>
     </g>
    </g>
    <g id="xtick_4">
     <g id="line2d_7">
      <path d="M 243.096183 273.312 
L 243.096183 7.2 
" clip-path="url(#p0fb521e8cb)" style="fill: none; stroke-dasharray: 0.8,1.32; stroke-dashoffset: 0; stroke: #b0b0b0; stroke-width: 0.8"/>
     </g>
     <g id="line2d_8">
      <g>
       <use xlink:href="#mcb8abdee37" x="243.096183" y="273.312" style="stroke: #000000; stroke-width: 0.8"/>
      </g>
     </g>
     <g id="text_4">
      <!-- 0.6 -->
      <g transform="translate(235.14462 287.910437) scale(0.1 -0.1)">
       <defs>
        <path id="DejaVuSans-36" d="M 2113 2584 
Q 1688 2584 1439 2293 
Q 1191 2003 1191 1497 
Q 1191 994 1439 701 
Q 1688 409 2113 409 
Q 2538 409 2786 701 
Q 3034 994 3034 1497 
Q 3034 2003 2786 2293 
Q 2538 2584 2113 2584 
z
M 3366 4563 
L 3366 3988 
Q 3128 4100 2886 4159 
Q 2644 4219 2406 4219 
Q 1781 4219 1451 3797 
Q 1122 3375 1075 2522 
Q 1259 2794 1537 2939 
Q 1816 3084 2150 3084 
Q 2853 3084 3261 2657 
Q 3669 2231 3669 1497 
Q 3669 778 3244 343 
Q 2819 -91 2113 -91 
Q 1303 -91 875 529 
Q 447 1150 447 2328 
Q 447 3434 972 4092 
Q 1497 4750 2381 4750 
Q 2619 4750 2861 4703 
Q 3103 4656 3366 4563 
z
" transform="scale(0.015625)"/>
       </defs>
       <use xlink:href="#DejaVuSans-30"/>
       <use xlink:href="#DejaVuSans-2e" x="63.623047"/>
       <use xlink:href="#DejaVuSans-36" x="95.410156"/>
      </g>
     </g>
    </g>
    <g id="xtick_5">
     <g id="line2d_9">
      <path d="M 308.68296 273.312 
L 308.68296 7.2 
" clip-path="url(#p0fb521e8cb)" style="fill: none; stroke-dasharray: 0.8,1.32; stroke-dashoffset: 0; stroke: #b0b0b0; stroke-width: 0.8"/>
     </g>
     <g id="line2d_10">
      <g>
       <use xlink:href="#mcb8abdee37" x="308.68296" y="273.312" style="stroke: #000000; stroke-width: 0.8"/>
      </g>
     </g>
     <g id="text_5">
      <!-- 0.8 -->
      <g transform="translate(300.731397 287.910437) scale(0.1 -0.1)">
       <defs>
        <path id="DejaVuSans-38" d="M 2034 2216 
Q 1584 2216 1326 1975 
Q 1069 1734 1069 1313 
Q 1069 891 1326 650 
Q 1584 409 2034 409 
Q 2484 409 2743 651 
Q 3003 894 3003 1313 
Q 3003 1734 2745 1975 
Q 2488 2216 2034 2216 
z
M 1403 2484 
Q 997 2584 770 2862 
Q 544 3141 544 3541 
Q 544 4100 942 4425 
Q 1341 4750 2034 4750 
Q 2731 4750 3128 4425 
Q 3525 4100 3525 3541 
Q 3525 3141 3298 2862 
Q 3072 2584 2669 2484 
Q 3125 2378 3379 2068 
Q 3634 1759 3634 1313 
Q 3634 634 3220 271 
Q 2806 -91 2034 -91 
Q 1263 -91 848 271 
Q 434 634 434 1313 
Q 434 1759 690 2068 
Q 947 2378 1403 2484 
z
M 1172 3481 
Q 1172 3119 1398 2916 
Q 1625 2713 2034 2713 
Q 2441 2713 2670 2916 
Q 2900 3119 2900 3481 
Q 2900 3844 2670 4047 
Q 2441 4250 2034 4250 
Q 1625 4250 1398 4047 
Q 1172 3844 1172 3481 
z
" transform="scale(0.015625)"/>
       </defs>
       <use xlink:href="#DejaVuSans-30"/>
       <use xlink:href="#DejaVuSans-2e" x="63.623047"/>
       <use xlink:href="#DejaVuSans-38" x="95.410156"/>
      </g>
     </g>
    </g>
    <g id="xtick_6">
     <g id="line2d_11">
      <path d="M 374.269737 273.312 
L 374.269737 7.2 
" clip-path="url(#p0fb521e8cb)" style="fill: none; stroke-dasharray: 0.8,1.32; stroke-dashoffset: 0; stroke: #b0b0b0; stroke-width: 0.8"/>
     </g>
     <g id="line2d_12">
      <g>
       <use xlink:href="#mcb8abdee37" x="374.269737" y="273.312" style="stroke: #000000; stroke-width: 0.8"/>
      </g>
     </g>
     <g id="text_6">
      <!-- 1.0 -->
      <g transform="translate(366.318174 287.910437) scale(0.1 -0.1)">
       <defs>
        <path id="DejaVuSans-31" d="M 794 531 
L 1825 531 
L 1825 4091 
L 703 3866 
L 703 4441 
L 1819 4666 
L 2450 4666 
L 2450 531 
L 3481 531 
L 3481 0 
L 794 0 
L 794 531 
z
" transform="scale(0.015625)"/>
       </defs>
       <use xlink:href="#DejaVuSans-31"/>
       <use xlink:href="#DejaVuSans-2e" x="63.623047"/>
       <use xlink:href="#DejaVuSans-30" x="95.410156"/>
      </g>
     </g>
    </g>
   </g>
   <g id="matplotlib.axis_2">
    <g id="ytick_1">
     <g id="line2d_13">
      <path d="M 30.103125 244.808317 
L 387.223125 244.808317 
" clip-path="url(#p0fb521e8cb)" style="fill: none; stroke-dasharray: 0.8,1.32; stroke-dashoffset: 0; stroke: #b0b0b0; stroke-width: 0.8"/>
     </g>
     <g id="line2d_14">
      <defs>
       <path id="madcdf732a2" d="M 0 0 
L -3.5 0 
" style="stroke: #000000; stroke-width: 0.8"/>
      </defs>
      <g>
       <use xlink:href="#madcdf732a2" x="30.103125" y="244.808317" style="stroke: #000000; stroke-width: 0.8"/>
      </g>
     </g>
     <g id="text_7">
      <!-- 0.0 -->
      <g transform="translate(7.2 248.607535) scale(0.1 -0.1)">
       <use xlink:href="#DejaVuSans-30"/>
       <use xlink:href="#DejaVuSans-2e" x="63.623047"/>
       <use xlink:href="#DejaVuSans-30" x="95.410156"/>
      </g>
     </g>
    </g>
    <g id="ytick_2">
     <g id="line2d_15">
      <path d="M 30.103125 203.30589 
L 387.223125 203.30589 
" clip-path="url(#p0fb521e8cb)" style="fill: none; stroke-dasharray: 0.8,1.32; stroke-dashoffset: 0; stroke: #b0b0b0; stroke-width: 0.8"/>
     </g>
     <g id="line2d_16">
      <g>
       <use xlink:href="#madcdf732a2" x="30.103125" y="203.30589" style="stroke: #000000; stroke-width: 0.8"/>
      </g>
     </g>
     <g id="text_8">
      <!-- 0.5 -->
      <g transform="translate(7.2 207.105109) scale(0.1 -0.1)">
       <defs>
        <path id="DejaVuSans-35" d="M 691 4666 
L 3169 4666 
L 3169 4134 
L 1269 4134 
L 1269 2991 
Q 1406 3038 1543 3061 
Q 1681 3084 1819 3084 
Q 2600 3084 3056 2656 
Q 3513 2228 3513 1497 
Q 3513 744 3044 326 
Q 2575 -91 1722 -91 
Q 1428 -91 1123 -41 
Q 819 9 494 109 
L 494 744 
Q 775 591 1075 516 
Q 1375 441 1709 441 
Q 2250 441 2565 725 
Q 2881 1009 2881 1497 
Q 2881 1984 2565 2268 
Q 2250 2553 1709 2553 
Q 1456 2553 1204 2497 
Q 953 2441 691 2322 
L 691 4666 
z
" transform="scale(0.015625)"/>
       </defs>
       <use xlink:href="#DejaVuSans-30"/>
       <use xlink:href="#DejaVuSans-2e" x="63.623047"/>
       <use xlink:href="#DejaVuSans-35" x="95.410156"/>
      </g>
     </g>
    </g>
    <g id="ytick_3">
     <g id="line2d_17">
      <path d="M 30.103125 161.803463 
L 387.223125 161.803463 
" clip-path="url(#p0fb521e8cb)" style="fill: none; stroke-dasharray: 0.8,1.32; stroke-dashoffset: 0; stroke: #b0b0b0; stroke-width: 0.8"/>
     </g>
     <g id="line2d_18">
      <g>
       <use xlink:href="#madcdf732a2" x="30.103125" y="161.803463" style="stroke: #000000; stroke-width: 0.8"/>
      </g>
     </g>
     <g id="text_9">
      <!-- 1.0 -->
      <g transform="translate(7.2 165.602682) scale(0.1 -0.1)">
       <use xlink:href="#DejaVuSans-31"/>
       <use xlink:href="#DejaVuSans-2e" x="63.623047"/>
       <use xlink:href="#DejaVuSans-30" x="95.410156"/>
      </g>
     </g>
    </g>
    <g id="ytick_4">
     <g id="line2d_19">
      <path d="M 30.103125 120.301036 
L 387.223125 120.301036 
" clip-path="url(#p0fb521e8cb)" style="fill: none; stroke-dasharray: 0.8,1.32; stroke-dashoffset: 0; stroke: #b0b0b0; stroke-width: 0.8"/>
     </g>
     <g id="line2d_20">
      <g>
       <use xlink:href="#madcdf732a2" x="30.103125" y="120.301036" style="stroke: #000000; stroke-width: 0.8"/>
      </g>
     </g>
     <g id="text_10">
      <!-- 1.5 -->
      <g transform="translate(7.2 124.100255) scale(0.1 -0.1)">
       <use xlink:href="#DejaVuSans-31"/>
       <use xlink:href="#DejaVuSans-2e" x="63.623047"/>
       <use xlink:href="#DejaVuSans-35" x="95.410156"/>
      </g>
     </g>
    </g>
    <g id="ytick_5">
     <g id="line2d_21">
      <path d="M 30.103125 78.79861 
L 387.223125 78.79861 
" clip-path="url(#p0fb521e8cb)" style="fill: none; stroke-dasharray: 0.8,1.32; stroke-dashoffset: 0; stroke: #b0b0b0; stroke-width: 0.8"/>
     </g>
     <g id="line2d_22">
      <g>
       <use xlink:href="#madcdf732a2" x="30.103125" y="78.79861" style="stroke: #000000; stroke-width: 0.8"/>
      </g>
     </g>
     <g id="text_11">
      <!-- 2.0 -->
      <g transform="translate(7.2 82.597828) scale(0.1 -0.1)">
       <use xlink:href="#DejaVuSans-32"/>
       <use xlink:href="#DejaVuSans-2e" x="63.623047"/>
       <use xlink:href="#DejaVuSans-30" x="95.410156"/>
      </g>
     </g>
    </g>
    <g id="ytick_6">
     <g id="line2d_23">
      <path d="M 30.103125 37.296183 
L 387.223125 37.296183 
" clip-path="url(#p0fb521e8cb)" style="fill: none; stroke-dasharray: 0.8,1.32; stroke-dashoffset: 0; stroke: #b0b0b0; stroke-width: 0.8"/>
     </g>
     <g id="line2d_24">
      <g>
       <use xlink:href="#madcdf732a2" x="30.103125" y="37.296183" style="stroke: #000000; stroke-width: 0.8"/>
      </g>
     </g>
     <g id="text_12">
      <!-- 2.5 -->
      <g transform="translate(7.2 41.095402) scale(0.1 -0.1)">
       <use xlink:href="#DejaVuSans-32"/>
       <use xlink:href="#DejaVuSans-2e" x="63.623047"/>
       <use xlink:href="#DejaVuSans-35" x="95.410156"/>
      </g>
     </g>
    </g>
   </g>
   <g id="line2d_25">
    <path d="M 46.335852 103.700066 
L 49.615191 104.11509 
L 52.89453 104.530114 
L 56.173869 104.945138 
L 59.453208 105.360163 
L 62.732546 105.775187 
L 66.011885 106.190211 
L 69.291224 106.605235 
L 72.570563 107.02026 
L 75.849902 107.435284 
L 79.129241 107.850308 
L 82.40858 108.265333 
L 85.687918 108.680357 
L 88.967257 109.095381 
L 92.246596 109.510405 
L 95.525935 109.92543 
L 98.805274 110.340454 
L 102.084613 110.755478 
L 105.363951 111.170502 
L 108.64329 111.585527 
L 111.922629 112.000551 
L 115.201968 112.415575 
L 118.481307 112.830599 
L 121.760646 113.245624 
L 125.039985 113.660648 
L 128.319323 114.075672 
L 131.598662 114.490697 
L 134.878001 114.905721 
L 138.15734 115.320745 
L 141.436679 115.735769 
L 144.716018 116.150794 
L 147.995356 116.565818 
L 151.274695 116.980842 
L 154.554034 117.395866 
L 157.833373 117.810891 
L 161.112712 118.225915 
L 164.392051 118.640939 
L 167.671389 119.055963 
L 170.950728 119.470988 
L 174.230067 119.886012 
L 177.509406 120.301036 
L 180.788745 120.716061 
L 184.068084 121.131085 
L 187.347423 121.546109 
L 190.626761 121.961133 
L 193.9061 122.376158 
L 197.185439 122.791182 
L 200.464778 123.206206 
L 203.744117 123.62123 
L 207.023456 124.036255 
L 210.302794 124.451279 
L 213.582133 124.866303 
L 216.861472 125.281328 
L 220.140811 125.696352 
L 223.42015 126.111376 
L 226.699489 126.5264 
L 229.978827 126.941425 
L 233.258166 127.356449 
L 236.537505 127.771473 
L 239.816844 128.186497 
L 243.096183 128.601522 
L 246.375522 129.016546 
L 249.654861 129.43157 
L 252.934199 129.846594 
L 256.213538 130.261619 
L 259.492877 130.676643 
L 262.772216 131.091667 
L 266.051555 131.506692 
L 269.330894 131.921716 
L 272.610232 132.33674 
L 275.889571 132.751764 
L 279.16891 133.166789 
L 282.448249 133.581813 
L 285.727588 133.996837 
L 289.006927 134.411861 
L 292.286265 134.826886 
L 295.565604 135.24191 
L 298.844943 135.656934 
L 302.124282 136.071958 
L 305.403621 136.486983 
L 308.68296 136.902007 
L 311.962299 137.317031 
L 315.241637 137.732056 
L 318.520976 138.14708 
L 321.800315 138.562104 
L 325.079654 138.977128 
L 328.358993 139.392153 
L 331.638332 139.807177 
L 334.91767 140.222201 
L 338.197009 140.637225 
L 341.476348 141.05225 
L 344.755687 141.467274 
L 348.035026 141.882298 
L 351.314365 142.297322 
L 354.593704 142.712347 
L 357.873042 143.127371 
L 361.152381 143.542395 
L 364.43172 143.95742 
L 367.711059 144.372444 
L 370.990398 144.787468 
" clip-path="url(#p0fb521e8cb)" style="fill: none; stroke: #ff0000; stroke-width: 2; stroke-linecap: square"/>
   </g>
   <g id="patch_3">
    <path d="M 30.103125 273.312 
L 30.103125 7.2 
" style="fill: none; stroke: #000000; stroke-width: 0.8; stroke-linejoin: miter; stroke-linecap: square"/>
   </g>
   <g id="patch_4">
    <path d="M 387.223125 273.312 
L 387.223125 7.2 
" style="fill: none; stroke: #000000; stroke-width: 0.8; stroke-linejoin: miter; stroke-linecap: square"/>
   </g>
   <g id="patch_5">
    <path d="M 30.103125 273.312 
L 387.223125 273.312 
" style="fill: none; stroke: #000000; stroke-width: 0.8; stroke-linejoin: miter; stroke-linecap: square"/>
   </g>
   <g id="patch_6">
    <path d="M 30.103125 7.2 
L 387.223125 7.2 
" style="fill: none; stroke: #000000; stroke-width: 0.8; stroke-linejoin: miter; stroke-linecap: square"/>
   </g>
   <g id="legend_1">
    <g id="patch_7">
     <path d="M 37.103125 268.312 
L 133.684375 268.312 
Q 135.684375 268.312 135.684375 266.312 
L 135.684375 237.95575 
Q 135.684375 235.95575 133.684375 235.95575 
L 37.103125 235.95575 
Q 35.103125 235.95575 35.103125 237.95575 
L 35.103125 266.312 
Q 35.103125 268.312 37.103125 268.312 
z
" style="fill: #ffffff; opacity: 0.8; stroke: #cccccc; stroke-linejoin: miter"/>
    </g>
    <g id="line2d_26">
     <path d="M 39.103125 244.054187 
L 49.103125 244.054187 
L 59.103125 244.054187 
" style="fill: none; stroke: #ff0000; stroke-width: 2; stroke-linecap: square"/>
    </g>
    <g id="text_13">
     <!-- Ground truth -->
     <g transform="translate(67.103125 247.554187) scale(0.1 -0.1)">
      <defs>
       <path id="DejaVuSans-47" d="M 3809 666 
L 3809 1919 
L 2778 1919 
L 2778 2438 
L 4434 2438 
L 4434 434 
Q 4069 175 3628 42 
Q 3188 -91 2688 -91 
Q 1594 -91 976 548 
Q 359 1188 359 2328 
Q 359 3472 976 4111 
Q 1594 4750 2688 4750 
Q 3144 4750 3555 4637 
Q 3966 4525 4313 4306 
L 4313 3634 
Q 3963 3931 3569 4081 
Q 3175 4231 2741 4231 
Q 1884 4231 1454 3753 
Q 1025 3275 1025 2328 
Q 1025 1384 1454 906 
Q 1884 428 2741 428 
Q 3075 428 3337 486 
Q 3600 544 3809 666 
z
" transform="scale(0.015625)"/>
       <path id="DejaVuSans-72" d="M 2631 2963 
Q 2534 3019 2420 3045 
Q 2306 3072 2169 3072 
Q 1681 3072 1420 2755 
Q 1159 2438 1159 1844 
L 1159 0 
L 581 0 
L 581 3500 
L 1159 3500 
L 1159 2956 
Q 1341 3275 1631 3429 
Q 1922 3584 2338 3584 
Q 2397 3584 2469 3576 
Q 2541 3569 2628 3553 
L 2631 2963 
z
" transform="scale(0.015625)"/>
       <path id="DejaVuSans-6f" d="M 1959 3097 
Q 1497 3097 1228 2736 
Q 959 2375 959 1747 
Q 959 1119 1226 758 
Q 1494 397 1959 397 
Q 2419 397 2687 759 
Q 2956 1122 2956 1747 
Q 2956 2369 2687 2733 
Q 2419 3097 1959 3097 
z
M 1959 3584 
Q 2709 3584 3137 3096 
Q 3566 2609 3566 1747 
Q 3566 888 3137 398 
Q 2709 -91 1959 -91 
Q 1206 -91 779 398 
Q 353 888 353 1747 
Q 353 2609 779 3096 
Q 1206 3584 1959 3584 
z
" transform="scale(0.015625)"/>
       <path id="DejaVuSans-75" d="M 544 1381 
L 544 3500 
L 1119 3500 
L 1119 1403 
Q 1119 906 1312 657 
Q 1506 409 1894 409 
Q 2359 409 2629 706 
Q 2900 1003 2900 1516 
L 2900 3500 
L 3475 3500 
L 3475 0 
L 2900 0 
L 2900 538 
Q 2691 219 2414 64 
Q 2138 -91 1772 -91 
Q 1169 -91 856 284 
Q 544 659 544 1381 
z
M 1991 3584 
L 1991 3584 
z
" transform="scale(0.015625)"/>
       <path id="DejaVuSans-6e" d="M 3513 2113 
L 3513 0 
L 2938 0 
L 2938 2094 
Q 2938 2591 2744 2837 
Q 2550 3084 2163 3084 
Q 1697 3084 1428 2787 
Q 1159 2491 1159 1978 
L 1159 0 
L 581 0 
L 581 3500 
L 1159 3500 
L 1159 2956 
Q 1366 3272 1645 3428 
Q 1925 3584 2291 3584 
Q 2894 3584 3203 3211 
Q 3513 2838 3513 2113 
z
" transform="scale(0.015625)"/>
       <path id="DejaVuSans-64" d="M 2906 2969 
L 2906 4863 
L 3481 4863 
L 3481 0 
L 2906 0 
L 2906 525 
Q 2725 213 2448 61 
Q 2172 -91 1784 -91 
Q 1150 -91 751 415 
Q 353 922 353 1747 
Q 353 2572 751 3078 
Q 1150 3584 1784 3584 
Q 2172 3584 2448 3432 
Q 2725 3281 2906 2969 
z
M 947 1747 
Q 947 1113 1208 752 
Q 1469 391 1925 391 
Q 2381 391 2643 752 
Q 2906 1113 2906 1747 
Q 2906 2381 2643 2742 
Q 2381 3103 1925 3103 
Q 1469 3103 1208 2742 
Q 947 2381 947 1747 
z
" transform="scale(0.015625)"/>
       <path id="DejaVuSans-20" transform="scale(0.015625)"/>
       <path id="DejaVuSans-74" d="M 1172 4494 
L 1172 3500 
L 2356 3500 
L 2356 3053 
L 1172 3053 
L 1172 1153 
Q 1172 725 1289 603 
Q 1406 481 1766 481 
L 2356 481 
L 2356 0 
L 1766 0 
Q 1100 0 847 248 
Q 594 497 594 1153 
L 594 3053 
L 172 3053 
L 172 3500 
L 594 3500 
L 594 4494 
L 1172 4494 
z
" transform="scale(0.015625)"/>
       <path id="DejaVuSans-68" d="M 3513 2113 
L 3513 0 
L 2938 0 
L 2938 2094 
Q 2938 2591 2744 2837 
Q 2550 3084 2163 3084 
Q 1697 3084 1428 2787 
Q 1159 2491 1159 1978 
L 1159 0 
L 581 0 
L 581 4863 
L 1159 4863 
L 1159 2956 
Q 1366 3272 1645 3428 
Q 1925 3584 2291 3584 
Q 2894 3584 3203 3211 
Q 3513 2838 3513 2113 
z
" transform="scale(0.015625)"/>
      </defs>
      <use xlink:href="#DejaVuSans-47"/>
      <use xlink:href="#DejaVuSans-72" x="77.490234"/>
      <use xlink:href="#DejaVuSans-6f" x="116.353516"/>
      <use xlink:href="#DejaVuSans-75" x="177.535156"/>
      <use xlink:href="#DejaVuSans-6e" x="240.914062"/>
      <use xlink:href="#DejaVuSans-64" x="304.292969"/>
      <use xlink:href="#DejaVuSans-20" x="367.769531"/>
      <use xlink:href="#DejaVuSans-74" x="399.556641"/>
      <use xlink:href="#DejaVuSans-72" x="438.765625"/>
      <use xlink:href="#DejaVuSans-75" x="479.878906"/>
      <use xlink:href="#DejaVuSans-74" x="543.257812"/>
      <use xlink:href="#DejaVuSans-68" x="582.466797"/>
     </g>
    </g>
    <g id="PathCollection_2">
     <g>
      <use xlink:href="#m85b0453e4e" x="49.103125" y="259.607312" style="fill: #0000ff; stroke: #0000ff"/>
     </g>
    </g>
    <g id="text_14">
     <!-- Data -->
     <g transform="translate(67.103125 262.232312) scale(0.1 -0.1)">
      <defs>
       <path id="DejaVuSans-44" d="M 1259 4147 
L 1259 519 
L 2022 519 
Q 2988 519 3436 956 
Q 3884 1394 3884 2338 
Q 3884 3275 3436 3711 
Q 2988 4147 2022 4147 
L 1259 4147 
z
M 628 4666 
L 1925 4666 
Q 3281 4666 3915 4102 
Q 4550 3538 4550 2338 
Q 4550 1131 3912 565 
Q 3275 0 1925 0 
L 628 0 
L 628 4666 
z
" transform="scale(0.015625)"/>
       <path id="DejaVuSans-61" d="M 2194 1759 
Q 1497 1759 1228 1600 
Q 959 1441 959 1056 
Q 959 750 1161 570 
Q 1363 391 1709 391 
Q 2188 391 2477 730 
Q 2766 1069 2766 1631 
L 2766 1759 
L 2194 1759 
z
M 3341 1997 
L 3341 0 
L 2766 0 
L 2766 531 
Q 2569 213 2275 61 
Q 1981 -91 1556 -91 
Q 1019 -91 701 211 
Q 384 513 384 1019 
Q 384 1609 779 1909 
Q 1175 2209 1959 2209 
L 2766 2209 
L 2766 2266 
Q 2766 2663 2505 2880 
Q 2244 3097 1772 3097 
Q 1472 3097 1187 3025 
Q 903 2953 641 2809 
L 641 3341 
Q 956 3463 1253 3523 
Q 1550 3584 1831 3584 
Q 2591 3584 2966 3190 
Q 3341 2797 3341 1997 
z
" transform="scale(0.015625)"/>
      </defs>
      <use xlink:href="#DejaVuSans-44"/>
      <use xlink:href="#DejaVuSans-61" x="77.001953"/>
      <use xlink:href="#DejaVuSans-74" x="138.28125"/>
      <use xlink:href="#DejaVuSans-61" x="177.490234"/>
     </g>
    </g>
   </g>
  </g>
 </g>
 <defs>
  <clipPath id="p0fb521e8cb">
   <rect x="30.103125" y="7.2" width="357.12" height="266.112"/>
  </clipPath>
 </defs>
</svg>